<?xml version="1.0" encoding="utf-8"?>
<!-- Generator: Adobe Illustrator 26.2.1, SVG Export Plug-In . SVG Version: 6.00 Build 0)  -->
<svg version="1.1" id="a" xmlns="http://www.w3.org/2000/svg" xmlns:xlink="http://www.w3.org/1999/xlink" x="0px" y="0px"
	 viewBox="0 0 1109 277" style="enable-background:new 0 0 1109 277;" xml:space="preserve">
<style type="text/css">
	.st0{fill:#FFFFFF;}
</style>
<g>
	<path class="st0" d="M348.2,122v-16.2H332V24.6h16.2V8.4H462v16.2h-97.5v81.2h65V73.3h-48.8V57.1H462v65L348.2,122L348.2,122z"/>
	<path class="st0" d="M491,122V24.5h16.2V8.3h97.5v16.2h16.2V122h-32.5V73.2h-65V122H491L491,122z M588.5,57V24.5h-65V57H588.5z"/>
	<path class="st0" d="M650,122V8.2h113.8v16.2H780v97.5h-32.5V24.4h-16.2v97.5h-32.5V24.4h-16.2v97.5L650,122L650,122z"/>
	<path class="st0" d="M808.9,122V8.2h130v16.2h-97.5v32.5h97.5v16.2h-97.5v32.5h97.5v16.2h-130V122z"/>
	<path class="st0" d="M967.9,122V8.2h113.8v16.2h16.2v48.8h-16.2v16.2h16.2v32.5h-32.5V89.4h-65v32.5L967.9,122L967.9,122z
		 M1065.4,73.2V24.4h-65v48.8H1065.4z"/>
	<path class="st0" d="M348.2,269v-16.2H332v-81.2h16.2v-16.2H462v16.2h-97.5v81.2h65v-32.5h-48.8v-16.2H462v65L348.2,269L348.2,269z
		"/>
	<path class="st0" d="M557.9,269v-16.2h-16.3v-97.5h32.5v97.5h65v-97.5h32.5v97.5h-16.2V269H557.9z"/>
	<path class="st0" d="M767.4,269v-16.2h81.2v-32.5h-81.2v-16.2h-16.2v-48.8h32.5v48.8h65v-48.8h32.5v97.5H865V269H767.4L767.4,269z"
		/>
	<path class="st0" d="M960.5,269v-16.2h97.5v-32.5h-81.2v-16.2h-16.2v-32.5h16.2v-16.2h113.8v16.2h-97.5v32.5h81.2v16.2h16.2v32.5
		h-16.2V269H960.5L960.5,269z"/>
</g>
<path class="st0" d="M11.4,270.6V124.1h219.8V50.9H11.4V14.3h256.4v36.6h36.6v73.2h-36.6v36.6H84.7v73.2h219.8v36.6H11.4V270.6z"/>
</svg>
